<svg width="300" height="300" viewBox="0 0 300 300" fill="none" xmlns="http://www.w3.org/2000/svg">
<g clip-path="url(#clip0_1_2)">
<path d="M150 149L150 261" stroke="white"/>
<path d="M212.667 43C212.667 41.5272 211.473 40.3333 210 40.3333C208.527 40.3333 207.333 41.5272 207.333 43C207.333 44.4728 208.527 45.6667 210 45.6667C211.473 45.6667 212.667 44.4728 212.667 43ZM210 43V42.5L150 42.5V43V43.5L210 43.5V43Z" fill="white"/>
<path d="M108 43L42 43" stroke="white"/>
<path d="M212.667 149C212.667 147.527 211.473 146.333 210 146.333C208.527 146.333 207.333 147.527 207.333 149C207.333 150.473 208.527 151.667 210 151.667C211.473 151.667 212.667 150.473 212.667 149ZM210 149V148.5H192V149V149.5H210V149Z" fill="white"/>
<path d="M212.354 261.354C212.549 261.158 212.549 260.842 212.354 260.646L209.172 257.464C208.976 257.269 208.66 257.269 208.464 257.464C208.269 257.66 208.269 257.976 208.464 258.172L211.293 261L208.464 263.828C208.269 264.024 208.269 264.34 208.464 264.536C208.66 264.731 208.976 264.731 209.172 264.536L212.354 261.354ZM86 261V261.5L212 261.5V261V260.5L86 260.5V261Z" fill="white"/>
<path d="M85.7143 42.5373C85.7143 66.03 66.5265 85.0746 42.8571 85.0746C19.1878 85.0746 0 66.03 0 42.5373C0 19.0446 19.1878 0 42.8571 0C66.5265 0 85.7143 19.0446 85.7143 42.5373Z" fill="url(#paint0_linear_1_2)"/>
<path d="M192.857 42.5373C192.857 66.03 173.669 85.0746 150 85.0746C126.331 85.0746 107.143 66.03 107.143 42.5373C107.143 19.0446 126.331 0 150 0C173.669 0 192.857 19.0446 192.857 42.5373Z" fill="url(#paint1_linear_1_2)"/>
<path d="M300 42.5373C300 66.03 280.812 85.0746 257.143 85.0746C233.473 85.0746 214.286 66.03 214.286 42.5373C214.286 19.0446 233.473 0 257.143 0C280.812 0 300 19.0446 300 42.5373Z" fill="url(#paint2_linear_1_2)"/>
<path d="M85.7143 150C85.7143 173.493 66.5265 192.537 42.8571 192.537C19.1878 192.537 0 173.493 0 150C0 126.507 19.1878 107.463 42.8571 107.463C66.5265 107.463 85.7143 126.507 85.7143 150Z" fill="url(#paint3_linear_1_2)"/>
<path d="M192.857 150C192.857 173.493 173.669 192.537 150 192.537C126.331 192.537 107.143 173.493 107.143 150C107.143 126.507 126.331 107.463 150 107.463C173.669 107.463 192.857 126.507 192.857 150Z" fill="url(#paint4_linear_1_2)"/>
<path d="M300 150C300 173.493 280.812 192.537 257.143 192.537C233.473 192.537 214.286 173.493 214.286 150C214.286 126.507 233.473 107.463 257.143 107.463C280.812 107.463 300 126.507 300 150Z" fill="url(#paint5_linear_1_2)"/>
<path d="M85.7143 257.463C85.7143 280.955 66.5265 300 42.8571 300C19.1878 300 0 280.955 0 257.463C0 233.97 19.1878 214.925 42.8571 214.925C66.5265 214.925 85.7143 233.97 85.7143 257.463Z" fill="url(#paint6_linear_1_2)"/>
<path d="M192.857 257.463C192.857 280.955 173.669 300 150 300C126.331 300 107.143 280.955 107.143 257.463C107.143 233.97 126.331 214.925 150 214.925C173.669 214.925 192.857 233.97 192.857 257.463Z" fill="url(#paint7_linear_1_2)"/>
<path d="M300 257.463C300 280.955 280.812 300 257.143 300C233.473 300 214.286 280.955 214.286 257.463C214.286 233.97 233.473 214.925 257.143 214.925C280.812 214.925 300 233.97 300 257.463Z" fill="url(#paint8_linear_1_2)"/>
<path d="M42 85L42 215" stroke="white"/>
</g>
<defs>
<linearGradient id="paint0_linear_1_2" x1="72.5" y1="227.5" x2="229.221" y2="71.2184" gradientUnits="userSpaceOnUse">
<stop stop-color="#9E59ED"/>
<stop offset="1" stop-color="#C83A77"/>
</linearGradient>
<linearGradient id="paint1_linear_1_2" x1="72.5" y1="227.5" x2="229.221" y2="71.2184" gradientUnits="userSpaceOnUse">
<stop stop-color="#9E59ED"/>
<stop offset="1" stop-color="#C83A77"/>
</linearGradient>
<linearGradient id="paint2_linear_1_2" x1="72.5" y1="227.5" x2="229.221" y2="71.2184" gradientUnits="userSpaceOnUse">
<stop stop-color="#9E59ED"/>
<stop offset="1" stop-color="#C83A77"/>
</linearGradient>
<linearGradient id="paint3_linear_1_2" x1="72.5" y1="227.5" x2="229.221" y2="71.2184" gradientUnits="userSpaceOnUse">
<stop stop-color="#9E59ED"/>
<stop offset="1" stop-color="#C83A77"/>
</linearGradient>
<linearGradient id="paint4_linear_1_2" x1="72.5" y1="227.5" x2="229.221" y2="71.2184" gradientUnits="userSpaceOnUse">
<stop stop-color="#9E59ED"/>
<stop offset="1" stop-color="#C83A77"/>
</linearGradient>
<linearGradient id="paint5_linear_1_2" x1="72.5" y1="227.5" x2="229.221" y2="71.2184" gradientUnits="userSpaceOnUse">
<stop stop-color="#9E59ED"/>
<stop offset="1" stop-color="#C83A77"/>
</linearGradient>
<linearGradient id="paint6_linear_1_2" x1="72.5" y1="227.5" x2="229.221" y2="71.2184" gradientUnits="userSpaceOnUse">
<stop stop-color="#9E59ED"/>
<stop offset="1" stop-color="#C83A77"/>
</linearGradient>
<linearGradient id="paint7_linear_1_2" x1="72.5" y1="227.5" x2="229.221" y2="71.2184" gradientUnits="userSpaceOnUse">
<stop stop-color="#9E59ED"/>
<stop offset="1" stop-color="#C83A77"/>
</linearGradient>
<linearGradient id="paint8_linear_1_2" x1="72.5" y1="227.5" x2="229.221" y2="71.2184" gradientUnits="userSpaceOnUse">
<stop stop-color="#9E59ED"/>
<stop offset="1" stop-color="#C83A77"/>
</linearGradient>
<clipPath id="clip0_1_2">
<rect width="300" height="300" fill="white"/>
</clipPath>
</defs>
</svg>
